<mxfile host="app.diagrams.net" modified="2024-04-28T02:56:59.321Z" agent="Mozilla/5.0 (Macintosh; Intel Mac OS X 10_15_7) AppleWebKit/537.36 (KHTML, like Gecko) Chrome/124.0.0.0 Safari/537.36" version="24.3.0" etag="ytD9axsGqaHQ_UmjYEt1" type="github">
  <diagram name="第 1 页" id="rURlq7eW2Phwx6ZwZV7j">
    <mxGraphModel>
      <root>
        <mxCell id="0" />
        <mxCell id="1" parent="0" />
      </root>
    </mxGraphModel>
  </diagram>
</mxfile>
